<?xml version="1.0" encoding="UTF-8"?>
<svg xmlns="http://www.w3.org/2000/svg" xmlns:xlink="http://www.w3.org/1999/xlink" width="48px" height="48px" viewBox="0 0 48 48" version="1.1">
<g id="surface1">
<path style=" stroke:none;fill-rule:nonzero;fill:rgb(0%,0%,0%);fill-opacity:1;" d="M 45.792969 12.035156 L 44.992188 12.035156 L 44.992188 9.730469 C 44.992188 9.460938 44.835938 9.210938 44.589844 9.09375 C 38.050781 6.019531 30.566406 5.972656 24 8.957031 C 17.433594 5.972656 9.949219 6.019531 3.410156 9.09375 C 3.164062 9.210938 3.007812 9.460938 3.007812 9.730469 L 3.007812 12.035156 L 2.207031 12.035156 C 0.992188 12.035156 0 13.023438 0 14.242188 L 0 39.039062 C 0 40.257812 0.992188 41.246094 2.207031 41.246094 L 45.792969 41.246094 C 47.007812 41.246094 48 40.257812 48 39.039062 L 48 14.242188 C 48 13.023438 47.007812 12.035156 45.792969 12.035156 Z M 24.703125 22.503906 L 24.703125 10.183594 C 30.730469 7.488281 37.558594 7.488281 43.585938 10.183594 L 43.585938 12.734375 C 43.585938 12.734375 43.585938 12.738281 43.585938 12.738281 C 43.585938 12.738281 43.585938 12.738281 43.585938 12.742188 L 43.585938 35.703125 C 40.558594 34.4375 37.351562 33.804688 34.144531 33.804688 C 30.9375 33.804688 27.734375 34.4375 24.703125 35.703125 Z M 20.195312 9.054688 C 21.246094 9.355469 22.28125 9.730469 23.296875 10.183594 L 23.296875 21.191406 L 22.136719 20.417969 C 21.898438 20.261719 21.589844 20.261719 21.355469 20.417969 L 20.195312 21.191406 Z M 4.414062 12.738281 C 4.414062 12.738281 4.414062 12.738281 4.414062 12.734375 L 4.414062 10.183594 C 8.976562 8.140625 14 7.648438 18.785156 8.699219 L 18.785156 11.785156 C 16.273438 11.265625 13.707031 11.148438 11.148438 11.433594 C 10.761719 11.476562 10.480469 11.824219 10.523438 12.210938 C 10.566406 12.597656 10.914062 12.875 11.304688 12.832031 C 13.8125 12.554688 16.328125 12.683594 18.785156 13.222656 L 18.785156 17.796875 C 17.292969 17.488281 15.765625 17.320312 14.242188 17.296875 C 13.851562 17.289062 13.53125 17.601562 13.527344 17.988281 C 13.519531 18.378906 13.832031 18.699219 14.21875 18.707031 C 15.753906 18.730469 17.289062 18.910156 18.785156 19.234375 L 18.785156 20.800781 C 14.710938 19.964844 10.484375 20.175781 6.503906 21.425781 C 6.132812 21.542969 5.925781 21.9375 6.042969 22.308594 C 6.136719 22.609375 6.417969 22.804688 6.714844 22.804688 C 6.785156 22.804688 6.855469 22.792969 6.925781 22.769531 C 10.769531 21.5625 14.859375 21.382812 18.785156 22.242188 L 18.785156 22.507812 C 18.785156 22.765625 18.929688 23.003906 19.160156 23.128906 C 19.386719 23.25 19.664062 23.238281 19.882812 23.09375 L 21.746094 21.851562 L 23.296875 22.882812 L 23.296875 35.703125 C 20.265625 34.4375 17.0625 33.804688 13.855469 33.804688 C 10.648438 33.804688 7.441406 34.4375 4.414062 35.703125 Z M 21.042969 39.835938 L 2.207031 39.835938 C 1.765625 39.835938 1.410156 39.480469 1.410156 39.039062 L 1.410156 14.242188 C 1.410156 13.800781 1.765625 13.441406 2.207031 13.441406 L 3.007812 13.441406 L 3.007812 37.535156 C 3.007812 37.925781 3.320312 38.242188 3.710938 38.242188 L 21.042969 38.242188 Z M 5.382812 36.832031 C 10.839844 34.675781 16.871094 34.675781 22.328125 36.832031 Z M 25.550781 39.835938 L 22.449219 39.835938 L 22.449219 38.242188 L 25.550781 38.242188 Z M 42.617188 36.832031 L 25.671875 36.832031 C 31.128906 34.675781 37.160156 34.675781 42.617188 36.832031 Z M 46.589844 39.039062 C 46.589844 39.480469 46.234375 39.835938 45.792969 39.835938 L 26.957031 39.835938 L 26.957031 38.242188 L 44.289062 38.242188 C 44.679688 38.242188 44.992188 37.925781 44.992188 37.535156 L 44.992188 13.441406 L 45.792969 13.441406 C 46.234375 13.441406 46.589844 13.800781 46.589844 14.242188 Z M 46.589844 39.039062 "/>
<path style=" stroke:none;fill-rule:nonzero;fill:rgb(0%,0%,0%);fill-opacity:1;" d="M 29.117188 29.847656 C 28.335938 30.011719 27.554688 30.214844 26.792969 30.453125 C 26.421875 30.570312 26.21875 30.964844 26.332031 31.335938 C 26.429688 31.636719 26.707031 31.832031 27.003906 31.832031 C 27.074219 31.832031 27.148438 31.820312 27.21875 31.796875 C 27.933594 31.574219 28.667969 31.378906 29.40625 31.226562 C 29.785156 31.144531 30.03125 30.773438 29.949219 30.390625 C 29.871094 30.011719 29.496094 29.765625 29.117188 29.847656 Z M 29.117188 29.847656 "/>
<path style=" stroke:none;fill-rule:nonzero;fill:rgb(0%,0%,0%);fill-opacity:1;" d="M 41.285156 31.832031 C 41.582031 31.832031 41.863281 31.636719 41.957031 31.335938 C 42.074219 30.964844 41.867188 30.570312 41.496094 30.453125 C 38.480469 29.507812 35.359375 29.152344 32.210938 29.402344 C 31.824219 29.433594 31.53125 29.773438 31.5625 30.160156 C 31.59375 30.546875 31.933594 30.835938 32.320312 30.808594 C 35.289062 30.574219 38.234375 30.90625 41.074219 31.796875 C 41.144531 31.820312 41.214844 31.832031 41.285156 31.832031 Z M 41.285156 31.832031 "/>
<path style=" stroke:none;fill-rule:nonzero;fill:rgb(0%,0%,0%);fill-opacity:1;" d="M 27.003906 28.816406 C 27.074219 28.816406 27.148438 28.804688 27.21875 28.78125 C 31.75 27.359375 36.539062 27.359375 41.074219 28.78125 C 41.445312 28.898438 41.839844 28.691406 41.957031 28.320312 C 42.074219 27.949219 41.867188 27.554688 41.496094 27.4375 C 36.6875 25.929688 31.601562 25.929688 26.792969 27.4375 C 26.421875 27.554688 26.21875 27.949219 26.332031 28.320312 C 26.429688 28.621094 26.707031 28.816406 27.003906 28.816406 Z M 27.003906 28.816406 "/>
<path style=" stroke:none;fill-rule:nonzero;fill:rgb(0%,0%,0%);fill-opacity:1;" d="M 27.003906 25.820312 C 27.074219 25.820312 27.148438 25.808594 27.21875 25.785156 C 29.816406 24.96875 32.515625 24.621094 35.238281 24.75 C 35.628906 24.765625 35.957031 24.46875 35.976562 24.078125 C 35.996094 23.691406 35.695312 23.359375 35.304688 23.339844 C 32.417969 23.203125 29.554688 23.574219 26.792969 24.441406 C 26.421875 24.558594 26.21875 24.953125 26.332031 25.324219 C 26.429688 25.625 26.707031 25.820312 27.003906 25.820312 Z M 27.003906 25.820312 "/>
<path style=" stroke:none;fill-rule:nonzero;fill:rgb(0%,0%,0%);fill-opacity:1;" d="M 41.496094 24.441406 C 40.484375 24.125 39.441406 23.871094 38.398438 23.6875 C 38.015625 23.617188 37.652344 23.875 37.582031 24.257812 C 37.515625 24.640625 37.773438 25.007812 38.15625 25.074219 C 39.136719 25.246094 40.121094 25.488281 41.074219 25.785156 C 41.144531 25.808594 41.214844 25.820312 41.285156 25.820312 C 41.582031 25.820312 41.859375 25.625 41.957031 25.324219 C 42.074219 24.953125 41.867188 24.558594 41.496094 24.441406 Z M 41.496094 24.441406 "/>
<path style=" stroke:none;fill-rule:nonzero;fill:rgb(0%,0%,0%);fill-opacity:1;" d="M 27.003906 22.804688 C 27.074219 22.804688 27.148438 22.792969 27.21875 22.769531 C 31.75 21.347656 36.539062 21.347656 41.074219 22.769531 C 41.445312 22.886719 41.839844 22.679688 41.957031 22.308594 C 42.074219 21.9375 41.867188 21.542969 41.496094 21.425781 C 36.6875 19.917969 31.601562 19.917969 26.792969 21.425781 C 26.421875 21.542969 26.21875 21.9375 26.332031 22.308594 C 26.429688 22.609375 26.707031 22.804688 27.003906 22.804688 Z M 27.003906 22.804688 "/>
<path style=" stroke:none;fill-rule:nonzero;fill:rgb(0%,0%,0%);fill-opacity:1;" d="M 31.4375 17.445312 C 29.867188 17.617188 28.304688 17.945312 26.792969 18.421875 C 26.421875 18.539062 26.21875 18.933594 26.332031 19.304688 C 26.429688 19.605469 26.707031 19.796875 27.003906 19.796875 C 27.074219 19.796875 27.148438 19.789062 27.21875 19.765625 C 28.640625 19.320312 30.113281 19.007812 31.59375 18.84375 C 31.980469 18.800781 32.257812 18.453125 32.214844 18.066406 C 32.171875 17.679688 31.824219 17.402344 31.4375 17.445312 Z M 31.4375 17.445312 "/>
<path style=" stroke:none;fill-rule:nonzero;fill:rgb(0%,0%,0%);fill-opacity:1;" d="M 34.511719 18.707031 C 36.738281 18.742188 38.945312 19.097656 41.074219 19.765625 C 41.144531 19.789062 41.214844 19.796875 41.285156 19.796875 C 41.582031 19.796875 41.859375 19.605469 41.957031 19.304688 C 42.074219 18.933594 41.867188 18.539062 41.496094 18.421875 C 39.238281 17.710938 36.894531 17.335938 34.53125 17.296875 C 34.144531 17.289062 33.824219 17.601562 33.816406 17.988281 C 33.808594 18.378906 34.121094 18.699219 34.511719 18.707031 Z M 34.511719 18.707031 "/>
<path style=" stroke:none;fill-rule:nonzero;fill:rgb(0%,0%,0%);fill-opacity:1;" d="M 36.695312 15.847656 C 37.082031 15.890625 37.433594 15.609375 37.476562 15.222656 C 37.519531 14.835938 37.238281 14.488281 36.851562 14.445312 C 33.449219 14.066406 30.0625 14.398438 26.792969 15.425781 C 26.421875 15.539062 26.21875 15.9375 26.332031 16.308594 C 26.429688 16.609375 26.707031 16.800781 27.003906 16.800781 C 27.074219 16.800781 27.148438 16.789062 27.21875 16.769531 C 30.296875 15.800781 33.488281 15.492188 36.695312 15.847656 Z M 36.695312 15.847656 "/>
<path style=" stroke:none;fill-rule:nonzero;fill:rgb(0%,0%,0%);fill-opacity:1;" d="M 41.496094 15.425781 C 40.984375 15.265625 40.464844 15.121094 39.949219 14.992188 C 39.570312 14.902344 39.1875 15.132812 39.097656 15.511719 C 39.003906 15.890625 39.234375 16.269531 39.613281 16.363281 C 40.101562 16.480469 40.59375 16.617188 41.074219 16.769531 C 41.144531 16.789062 41.214844 16.800781 41.285156 16.800781 C 41.582031 16.800781 41.863281 16.609375 41.957031 16.308594 C 42.074219 15.9375 41.867188 15.539062 41.496094 15.425781 Z M 41.496094 15.425781 "/>
<path style=" stroke:none;fill-rule:nonzero;fill:rgb(0%,0%,0%);fill-opacity:1;" d="M 27.003906 13.785156 C 27.074219 13.785156 27.148438 13.777344 27.21875 13.753906 C 27.695312 13.601562 28.1875 13.464844 28.675781 13.347656 C 29.054688 13.253906 29.285156 12.875 29.191406 12.496094 C 29.101562 12.117188 28.71875 11.886719 28.339844 11.980469 C 27.824219 12.105469 27.304688 12.25 26.792969 12.410156 C 26.421875 12.527344 26.21875 12.921875 26.332031 13.292969 C 26.429688 13.59375 26.707031 13.785156 27.003906 13.785156 Z M 27.003906 13.785156 "/>
<path style=" stroke:none;fill-rule:nonzero;fill:rgb(0%,0%,0%);fill-opacity:1;" d="M 31.59375 12.832031 C 34.800781 12.476562 37.992188 12.785156 41.074219 13.753906 C 41.144531 13.777344 41.214844 13.785156 41.285156 13.785156 C 41.582031 13.785156 41.859375 13.59375 41.957031 13.292969 C 42.074219 12.921875 41.867188 12.527344 41.496094 12.410156 C 38.226562 11.382812 34.84375 11.054688 31.4375 11.433594 C 31.050781 11.476562 30.773438 11.824219 30.816406 12.210938 C 30.859375 12.597656 31.207031 12.875 31.59375 12.832031 Z M 31.59375 12.832031 "/>
<path style=" stroke:none;fill-rule:nonzero;fill:rgb(0%,0%,0%);fill-opacity:1;" d="M 8.824219 29.847656 C 8.046875 30.011719 7.265625 30.214844 6.503906 30.453125 C 6.132812 30.570312 5.925781 30.964844 6.042969 31.335938 C 6.140625 31.636719 6.417969 31.832031 6.714844 31.832031 C 6.785156 31.832031 6.855469 31.820312 6.925781 31.796875 C 7.644531 31.574219 8.378906 31.378906 9.113281 31.226562 C 9.496094 31.144531 9.738281 30.773438 9.660156 30.390625 C 9.582031 30.011719 9.207031 29.765625 8.824219 29.847656 Z M 8.824219 29.847656 "/>
<path style=" stroke:none;fill-rule:nonzero;fill:rgb(0%,0%,0%);fill-opacity:1;" d="M 20.996094 31.832031 C 21.292969 31.832031 21.570312 31.636719 21.667969 31.335938 C 21.78125 30.964844 21.578125 30.570312 21.207031 30.453125 C 18.191406 29.507812 15.070312 29.152344 11.921875 29.402344 C 11.53125 29.433594 11.242188 29.773438 11.273438 30.160156 C 11.304688 30.546875 11.644531 30.835938 12.03125 30.808594 C 15 30.574219 17.941406 30.90625 20.78125 31.796875 C 20.851562 31.820312 20.925781 31.832031 20.996094 31.832031 Z M 20.996094 31.832031 "/>
<path style=" stroke:none;fill-rule:nonzero;fill:rgb(0%,0%,0%);fill-opacity:1;" d="M 6.714844 28.816406 C 6.785156 28.816406 6.855469 28.804688 6.925781 28.78125 C 11.460938 27.359375 16.25 27.359375 20.78125 28.78125 C 21.152344 28.898438 21.550781 28.691406 21.667969 28.320312 C 21.78125 27.949219 21.578125 27.554688 21.207031 27.4375 C 16.398438 25.929688 11.3125 25.929688 6.503906 27.4375 C 6.132812 27.554688 5.925781 27.949219 6.042969 28.320312 C 6.140625 28.621094 6.417969 28.816406 6.714844 28.816406 Z M 6.714844 28.816406 "/>
<path style=" stroke:none;fill-rule:nonzero;fill:rgb(0%,0%,0%);fill-opacity:1;" d="M 6.714844 25.820312 C 6.785156 25.820312 6.855469 25.808594 6.925781 25.785156 C 9.527344 24.96875 12.226562 24.621094 14.949219 24.75 C 15.339844 24.765625 15.667969 24.46875 15.6875 24.078125 C 15.703125 23.691406 15.40625 23.359375 15.015625 23.339844 C 12.125 23.203125 9.265625 23.574219 6.503906 24.441406 C 6.132812 24.558594 5.925781 24.953125 6.042969 25.324219 C 6.140625 25.625 6.417969 25.820312 6.714844 25.820312 Z M 6.714844 25.820312 "/>
<path style=" stroke:none;fill-rule:nonzero;fill:rgb(0%,0%,0%);fill-opacity:1;" d="M 17.867188 25.074219 C 18.847656 25.246094 19.832031 25.488281 20.78125 25.785156 C 20.851562 25.808594 20.925781 25.820312 20.996094 25.820312 C 21.292969 25.820312 21.570312 25.625 21.667969 25.324219 C 21.78125 24.953125 21.578125 24.558594 21.207031 24.441406 C 20.195312 24.125 19.152344 23.871094 18.109375 23.6875 C 17.726562 23.617188 17.363281 23.875 17.292969 24.257812 C 17.226562 24.640625 17.480469 25.007812 17.867188 25.074219 Z M 17.867188 25.074219 "/>
<path style=" stroke:none;fill-rule:nonzero;fill:rgb(0%,0%,0%);fill-opacity:1;" d="M 11.148438 17.445312 C 9.574219 17.617188 8.015625 17.945312 6.503906 18.421875 C 6.132812 18.539062 5.925781 18.933594 6.042969 19.304688 C 6.140625 19.605469 6.417969 19.796875 6.714844 19.796875 C 6.785156 19.796875 6.855469 19.789062 6.925781 19.765625 C 8.351562 19.320312 9.820312 19.007812 11.304688 18.84375 C 11.691406 18.800781 11.96875 18.453125 11.925781 18.066406 C 11.882812 17.679688 11.535156 17.402344 11.148438 17.445312 Z M 11.148438 17.445312 "/>
<path style=" stroke:none;fill-rule:nonzero;fill:rgb(0%,0%,0%);fill-opacity:1;" d="M 6.042969 16.308594 C 6.140625 16.609375 6.417969 16.800781 6.714844 16.800781 C 6.785156 16.800781 6.855469 16.789062 6.925781 16.769531 C 10.007812 15.800781 13.199219 15.492188 16.40625 15.847656 C 16.792969 15.890625 17.140625 15.609375 17.183594 15.222656 C 17.226562 14.835938 16.949219 14.488281 16.5625 14.445312 C 13.15625 14.066406 9.773438 14.398438 6.503906 15.425781 C 6.132812 15.539062 5.925781 15.9375 6.042969 16.308594 Z M 6.042969 16.308594 "/>
<path style=" stroke:none;fill-rule:nonzero;fill:rgb(0%,0%,0%);fill-opacity:1;" d="M 6.714844 13.785156 C 6.785156 13.785156 6.855469 13.777344 6.925781 13.753906 C 7.40625 13.601562 7.898438 13.464844 8.386719 13.347656 C 8.761719 13.253906 8.996094 12.875 8.902344 12.496094 C 8.8125 12.117188 8.429688 11.886719 8.050781 11.980469 C 7.535156 12.105469 7.011719 12.25 6.503906 12.410156 C 6.132812 12.527344 5.925781 12.921875 6.042969 13.292969 C 6.140625 13.59375 6.417969 13.785156 6.714844 13.785156 Z M 6.714844 13.785156 "/>
</g>
</svg>
